<?xml version="1.0" encoding="UTF-8" standalone="no"?>
<!-- Created with Inkscape (http://www.inkscape.org/) -->

<svg
   xmlns:dc="http://purl.org/dc/elements/1.1/"
   xmlns:cc="http://creativecommons.org/ns#"
   xmlns:rdf="http://www.w3.org/1999/02/22-rdf-syntax-ns#"
   xmlns:svg="http://www.w3.org/2000/svg"
   xmlns="http://www.w3.org/2000/svg"
   xmlns:sodipodi="http://sodipodi.sourceforge.net/DTD/sodipodi-0.dtd"
   xmlns:inkscape="http://www.inkscape.org/namespaces/inkscape"
   width="744.09448819"
   height="1052.3622047"
   id="svg2"
   version="1.1"
   inkscape:version="0.47 r22583"
   sodipodi:docname="drawing-1.svg">
  <defs
     id="defs4">
    <inkscape:perspective
       sodipodi:type="inkscape:persp3d"
       inkscape:vp_x="0 : 526.18109 : 1"
       inkscape:vp_y="0 : 1000 : 0"
       inkscape:vp_z="744.09448 : 526.18109 : 1"
       inkscape:persp3d-origin="372.04724 : 350.78739 : 1"
       id="perspective10" />
    <inkscape:perspective
       id="perspective3695"
       inkscape:persp3d-origin="0.5 : 0.33333333 : 1"
       inkscape:vp_z="1 : 0.5 : 1"
       inkscape:vp_y="0 : 1000 : 0"
       inkscape:vp_x="0 : 0.5 : 1"
       sodipodi:type="inkscape:persp3d" />
    <inkscape:perspective
       id="perspective3769"
       inkscape:persp3d-origin="0.5 : 0.33333333 : 1"
       inkscape:vp_z="1 : 0.5 : 1"
       inkscape:vp_y="0 : 1000 : 0"
       inkscape:vp_x="0 : 0.5 : 1"
       sodipodi:type="inkscape:persp3d" />
    <inkscape:perspective
       id="perspective3670"
       inkscape:persp3d-origin="0.5 : 0.33333333 : 1"
       inkscape:vp_z="1 : 0.5 : 1"
       inkscape:vp_y="0 : 1000 : 0"
       inkscape:vp_x="0 : 0.5 : 1"
       sodipodi:type="inkscape:persp3d" />
  </defs>
  <sodipodi:namedview
     id="base"
     pagecolor="#ffffff"
     bordercolor="#666666"
     borderopacity="1.0"
     inkscape:pageopacity="0.0"
     inkscape:pageshadow="2"
     inkscape:zoom="0.98994949"
     inkscape:cx="391.62613"
     inkscape:cy="407.29921"
     inkscape:document-units="px"
     inkscape:current-layer="layer1"
     showgrid="false"
     inkscape:window-width="956"
     inkscape:window-height="1022"
     inkscape:window-x="0"
     inkscape:window-y="27"
     inkscape:window-maximized="0" />
  <metadata
     id="metadata7">
    <rdf:RDF>
      <cc:Work
         rdf:about="">
        <dc:format>image/svg+xml</dc:format>
        <dc:type
           rdf:resource="http://purl.org/dc/dcmitype/StillImage" />
        <dc:title></dc:title>
      </cc:Work>
    </rdf:RDF>
  </metadata>
  <g
     inkscape:label="Layer 1"
     inkscape:groupmode="layer"
     id="layer1">
    <rect
       y="346.64795"
       x="174.28557"
       height="465.71429"
       width="465.71429"
       id="rect2860"
       style="fill:none;stroke:#000000"
       inkscape:export-filename="/home/diego/rentacoder/multiplecheckbox/doc/logo-64.png"
       inkscape:export-xdpi="6.1799998"
       inkscape:export-ydpi="6.1799998" />
    <g
       id="g2846">
      <g
         inkscape:export-ydpi="6.1799998"
         inkscape:export-xdpi="6.1799998"
         inkscape:export-filename="/home/diego/rentacoder/multiplecheckbox/doc/logo-64.png"
         id="g2848"
         transform="matrix(0.49606258,-0.06262523,0.06262523,0.49606258,820.45738,307.45954)">
        <g
           transform="matrix(1.0070368,0,0,1.0070368,907.59519,-273.73228)"
           id="g2850">
          <path
             sodipodi:nodetypes="cccccccccccccccccccc"
             id="path2852"
             d="m -2189.5498,288.27606 -19.8618,112.71912 88.0589,41.94798 136.1788,346.29802 133.2781,364.81672 173.518,19.1105 17.6575,-70.8113 230.5052,-629.47381 101.625,-47.46459 -13.3578,-113.16616 -286.1892,-7.66961 -46.6404,114.26555 97.7756,-0.37939 -25.5583,57.64765 -140.955,372.85699 -126.0484,-373.88368 -21.5631,-52.36519 81.1224,0.30139 -22.8655,-109.95413 -356.68,-24.79606 z"
             style="font-size:1104.57336426px;font-style:normal;font-variant:normal;font-weight:bold;font-stretch:normal;text-align:start;line-height:125%;writing-mode:lr-tb;text-anchor:start;fill:#000000;fill-opacity:1;stroke:none;font-family:Bitstream Charter;-inkscape-font-specification:Bitstream Charter Bold" />
        </g>
        <g
           id="g2854">
          <path
             style="font-size:1104.57336426px;font-style:normal;font-variant:normal;font-weight:bold;font-stretch:normal;text-align:start;line-height:125%;writing-mode:lr-tb;text-anchor:start;fill:#3d6a9f;fill-opacity:1;stroke:none;font-family:Bitstream Charter;-inkscape-font-specification:Bitstream Charter Bold"
             d="m -1284.1562,66.375 0,59.12633 79.643,14.47435 273.88599,738.46469 121.87126,0 19.4243,-53.49363 -45.7444,-125.66052 -0.20482,0.5462 -200.31943,-550.1958 13.2794,-18.12707 69.98218,-6.00822 0,-59.12633 -331.81748,0 z"
             id="path2856" />
          <path
             style="font-size:1104.57336426px;font-style:normal;font-variant:normal;font-weight:bold;font-stretch:normal;text-align:start;line-height:125%;writing-mode:lr-tb;text-anchor:start;fill:#509cd1;fill-opacity:1;stroke:none;font-family:Bitstream Charter;-inkscape-font-specification:Bitstream Charter Bold"
             d="m -726.68915,66.375 0,59.12633 72.37173,6.00822 13.27953,18.12707 -194.03816,549.6496 45.7444,125.66052 248.45349,-683.77625 78.44822,-15.66916 0,-59.12633 -264.25921,0 z"
             id="path2858" />
        </g>
      </g>
      <g
         inkscape:export-ydpi="6.1799998"
         inkscape:export-xdpi="6.1799998"
         inkscape:export-filename="/home/diego/rentacoder/multiplecheckbox/doc/logo-64.png"
         id="g2862"
         transform="matrix(0.39391837,0,0,0.39391837,990.15951,184.04665)">
        <rect
           y="1187.7227"
           x="-1297.0359"
           height="369.71582"
           width="367.69553"
           id="rect2864"
           style="fill:#ffffff;fill-opacity:1;stroke:#000000;stroke-width:3;stroke-miterlimit:4;stroke-opacity:1;stroke-dasharray:none" />
        <path
           d="m -1305.6155,1173.6597 390.83318,0 1.60727,1.6073 0,396.4587 -1.60727,1.8751 -390.83318,0 -1.6073,-1.8751 0,-396.4587 1.6073,-1.6073 m 28.1271,29.4666 0,340.7401 334.31107,0 0,-340.7401 -334.31107,0 m 298.14761,42.3246 0,1.6073 c -13.57287,11.6083 -24.02011,22.5913 -31.34171,32.9489 -58.3975,78.9348 -93.1322,147.2435 -104.2042,204.9263 -1.0718,10.5366 -3.0362,15.8048 -5.8933,15.8048 -20.8947,8.3935 -32.5027,12.5903 -34.8241,12.5902 -18.0373,-46.0748 -45.3608,-69.1123 -81.9705,-69.1124 l -6.1612,0 0,-1.8751 43.3961,-19.5551 c 26.9662,2e-4 46.9677,11.6975 60.0046,35.092 l 1.6073,0 c 9.1076,-29.645 19.2869,-54.8255 30.538,-75.5415 17.5011,-31.9665 40.092,-64.6475 67.7729,-98.0431 17.3224,-21.4299 37.6811,-34.3773 61.07611,-38.8423"
           style="font-size:548.61309814px;font-style:normal;font-variant:normal;font-weight:normal;font-stretch:normal;text-align:start;line-height:125%;writing-mode:lr-tb;text-anchor:start;fill:#000000;fill-opacity:1;stroke:none;font-family:Bitstream Vera Sans;-inkscape-font-specification:Bitstream Vera Sans"
           id="path2866" />
      </g>
    </g>
  </g>
</svg>
